# xmcd
#
# Track frame offsets: 
#        150
#        16332
#        30122
#        43030
#        58705
#        70017
#        80927
#        94002
#        110055
#        122535
#        134477
#        148487
#
# Disc length: 2125 seconds
#
# Revision: 0
# Processed by: cddbd v1.5.2PL0 Copyright (c) Steve Scherf et al.
# Submitted via: ExactAudioCopy v0.95b4
#
DISCID=a9084b0c
DTITLE=The Churchmen - I'll Be Long Gone
DYEAR=2008
DGENRE=Bluegrass
TTITLE0=Only Yours
TTITLE1=I'll Be Long Gone
TTITLE2=Back To The Cross
TTITLE3=I'm Not Alone
TTITLE4=In My Darkest Hour
TTITLE5=Are You Lost In Sin
TTITLE6=Jesus My Mother and Me
TTITLE7=Final Harvest
TTITLE8=Take Me in the Lifeboat
TTITLE9=Rocked on the Deep
TTITLE10=Smooth Road
TTITLE11=That's the Way I Want to Go
EXTD=
EXTT0=
EXTT1=
EXTT2=
EXTT3=
EXTT4=
EXTT5=
EXTT6=
EXTT7=
EXTT8=
EXTT9=
EXTT10=
EXTT11=
PLAYORDER=
